<?xml version="1.0" standalone="no"?>
<!DOCTYPE svg PUBLIC "-//W3C//DTD SVG 20010904//EN"
 "http://www.w3.org/TR/2001/REC-SVG-20010904/DTD/svg10.dtd">
<svg version="1.0" xmlns="http://www.w3.org/2000/svg"
 width="236.000000pt" height="244.000000pt" viewBox="0 0 236.000000 244.000000"
 preserveAspectRatio="xMidYMid meet">

<g transform="translate(0.000000,244.000000) scale(0.100000,-0.100000)"
fill="#000000" stroke="none">
<path d="M433 2275 c-153 -154 -233 -399 -233 -716 l0 -96 -41 -44 c-23 -24
-55 -73 -73 -109 -28 -59 -31 -74 -31 -165 0 -91 3 -106 31 -165 51 -106 235
-303 399 -425 237 -177 516 -296 784 -336 47 -6 140 -9 223 -7 154 5 190 14
388 95 269 111 412 213 380 274 -27 49 -62 47 -315 -17 -198 -49 -320 -62
-447 -45 -178 24 -301 83 -428 208 -77 76 -87 83 -108 73 -39 -17 -66 -11
-114 28 -26 20 -47 40 -48 45 0 4 14 10 31 14 29 5 30 8 24 40 -5 29 -3 35 14
40 26 7 26 10 1 72 -11 28 -31 97 -46 153 -33 131 -73 206 -143 269 -61 54
-149 89 -226 89 l-42 0 -7 53 c-3 28 -6 98 -6 155 0 154 45 271 153 396 l50
58 -54 49 c-30 26 -61 48 -69 47 -8 0 -29 -15 -47 -33z m106 -62 c2 -1 -15
-23 -37 -50 -54 -65 -87 -126 -118 -214 -28 -80 -34 -197 -19 -364 l7 -81 -62
-27 -62 -27 5 183 c4 133 11 202 25 257 38 145 91 249 170 332 l36 38 25 -23
c15 -12 28 -23 30 -24z m-219 -862 c7 -15 5 -48 -10 -123 -34 -173 -23 -253
52 -379 68 -114 255 -270 470 -392 115 -66 91 -69 -41 -6 -108 51 -201 112
-326 215 -114 94 -158 138 -242 245 -71 90 -88 141 -80 237 8 93 21 132 63
180 29 34 42 42 69 42 24 0 38 -6 45 -19z m205 -342 c67 -21 123 -26 214 -19
53 4 55 3 64 -24 7 -21 6 -31 -4 -38 -24 -16 -208 -2 -279 23 -74 24 -95 40
-87 63 8 21 15 20 92 -5z"/>
</g>
</svg>
